<svg width="171" height="32" viewBox="0 0 171 32" fill="none" xmlns="http://www.w3.org/2000/svg">
<g clip-path="url(#clip0_3754_5922)">
<path d="M11.9966 11.4952C11.5052 10.9602 10.9201 10.5438 10.2399 10.2428C9.55965 9.94343 8.80141 9.79297 7.96672 9.79297C7.02907 9.79297 6.18814 9.99662 5.44082 10.4024C4.6935 10.8082 4.10064 11.4146 3.66224 12.2217C3.51402 12.4952 3.39389 12.7977 3.28936 13.1123V10.1349H0.499786V26.1387H4.01327V20.3862C4.41891 20.9546 4.91661 21.3969 5.51727 21.6993C6.24274 22.0625 7.05715 22.2449 7.96672 22.2449C8.8763 22.2449 9.62518 22.0914 10.3054 21.7844C10.9856 21.4774 11.5645 21.0534 12.0403 20.5123C12.5162 19.9697 12.8781 19.3329 13.1277 18.5973C13.3758 17.8633 13.5006 17.0745 13.5006 16.2325V15.7401C13.5006 14.8844 13.3727 14.0971 13.1168 13.3767C12.861 12.6563 12.4865 12.0286 11.9966 11.4937V11.4952ZM9.59241 17.7538C9.34279 18.2675 8.99487 18.6672 8.54867 18.9515C8.10246 19.2372 7.57824 19.38 6.97914 19.38C6.48145 19.38 5.9978 19.2661 5.52975 19.0381C5.0617 18.8101 4.67634 18.4788 4.37679 18.0426C4.07568 17.6079 3.9259 17.0836 3.9259 16.4696V15.6777C3.9259 15.0364 4.06944 14.4908 4.35495 14.0409C4.64046 13.591 5.01802 13.246 5.48607 13.0028C5.95411 12.7597 6.45181 12.6396 6.97914 12.6396C7.59385 12.6396 8.12118 12.7779 8.56115 13.0576C8.99955 13.3357 9.34435 13.7248 9.59397 14.2233C9.84204 14.7233 9.96685 15.3069 9.96685 15.9772C9.96685 16.6474 9.84204 17.2386 9.59397 17.7523L9.59241 17.7538Z" fill="#111111"/>
<path d="M18.8706 11.3364C18.323 12.0142 17.9844 12.9079 17.8502 14.0173V10.1387H15.0607V21.8627H18.5742V15.8943C18.5742 14.9384 18.8378 14.2073 19.3652 13.7012C19.8925 13.1951 20.6398 12.9413 21.6056 12.9413H22.4839V9.98828H22.0221C20.6461 9.98828 19.5945 10.4382 18.8706 11.3364Z" fill="#111111"/>
<path d="M34.0806 11.5265C33.5096 10.9702 32.8169 10.531 32.0056 10.2103C31.1928 9.88962 30.2676 9.72852 29.227 9.72852C28.1863 9.72852 27.3017 9.88962 26.4811 10.2103C25.6604 10.531 24.9615 10.9702 24.3842 11.5265C23.8054 12.0827 23.367 12.7287 23.0674 13.4627C22.7663 14.1968 22.6166 14.9704 22.6166 15.7835V16.2759C22.6166 17.0754 22.7632 17.8353 23.055 18.5542C23.3483 19.2746 23.7758 19.9129 24.3405 20.4691C24.9038 21.0254 25.5965 21.4646 26.4156 21.7853C27.2346 22.106 28.1723 22.2671 29.227 22.2671C30.2816 22.2671 31.2396 22.106 32.0602 21.7853C32.8809 21.4646 33.572 21.0254 34.1352 20.4691C34.6985 19.9129 35.1275 19.2746 35.4208 18.5542C35.7141 17.8338 35.8592 17.0739 35.8592 16.2759V15.7835C35.8592 14.9704 35.7063 14.1968 35.3974 13.4627C35.0901 12.7287 34.6501 12.0827 34.0806 11.5265ZM31.9838 17.7517C31.742 18.2654 31.394 18.6651 30.94 18.9493C30.486 19.235 29.915 19.3779 29.227 19.3779C28.5389 19.3779 28.0038 19.235 27.5358 18.9493C27.0677 18.6636 26.7151 18.2654 26.4811 17.7517C26.2471 17.238 26.13 16.6681 26.13 16.0404C26.13 15.3701 26.2502 14.7819 26.492 14.2758C26.7338 13.7697 27.088 13.367 27.5576 13.0676C28.0256 12.7682 28.5826 12.6177 29.227 12.6177C29.8713 12.6177 30.4455 12.7682 30.9073 13.0676C31.3675 13.367 31.7232 13.7697 31.9729 14.2758C32.2225 14.7819 32.3457 15.3701 32.3457 16.0404C32.3457 16.6681 32.2256 17.238 31.9838 17.7517Z" fill="#111111"/>
<path d="M48.9709 11.4734C48.5013 10.9385 47.935 10.5251 47.2688 10.2317C46.6026 9.93993 45.86 9.79403 45.0393 9.79403C44.1017 9.79403 43.267 9.99769 42.5353 10.4035C41.88 10.7682 41.3574 11.3017 40.9533 11.9856V6.24219H37.4398V21.86H40.2294V19.299C40.3074 19.4981 40.3932 19.6896 40.493 19.869C40.9174 20.6395 41.5025 21.2277 42.2498 21.6335C42.9971 22.0393 43.8599 22.243 44.8412 22.243C45.7055 22.243 46.4809 22.0894 47.169 21.7824C47.857 21.4754 48.4467 21.0484 48.9366 20.4982C49.4265 19.9495 49.801 19.3112 50.0568 18.5832C50.3127 17.8552 50.4406 17.0649 50.4406 16.2077V15.7366C50.4406 14.8809 50.3127 14.0891 50.0568 13.3626C49.801 12.6346 49.4374 12.0039 48.9694 11.4689L48.9709 11.4734ZM46.5324 17.7427C46.2828 18.264 45.9349 18.6668 45.4887 18.951C45.0425 19.2367 44.5182 19.3796 43.9191 19.3796C43.4214 19.3796 42.9378 19.2656 42.4698 19.0376C42.0017 18.8097 41.6163 18.4783 41.3168 18.0421C41.0157 17.6075 40.8659 17.0831 40.8659 16.4691V15.6773C40.8659 15.0359 41.0094 14.4903 41.295 14.0404C41.5805 13.5906 41.958 13.2456 42.4261 13.0024C42.8941 12.7592 43.3918 12.6391 43.9191 12.6391C44.5198 12.6391 45.0425 12.7775 45.4887 13.0571C45.9349 13.3352 46.2828 13.7243 46.5324 14.2228C46.7805 14.7228 46.9053 15.3064 46.9053 15.9767C46.9053 16.6469 46.7805 17.2214 46.5324 17.7412V17.7427Z" fill="#111111"/>
<path d="M59.4023 17.0265C59.4023 17.6831 59.2041 18.2029 58.8094 18.5889C58.4147 18.9734 57.9014 19.1665 57.2727 19.1665C56.6439 19.1665 56.1665 18.981 55.8014 18.6102C55.4348 18.2394 55.2523 17.7409 55.2523 17.1132V10.1387H51.7388V16.9414C51.7388 18.7105 52.1116 20.0328 52.859 20.9097C53.6063 21.7866 54.675 22.2259 56.0651 22.2259H56.2196C57.1276 22.2259 57.8889 22.0329 58.5036 21.6483C59.1183 21.2638 59.5833 20.6741 59.8984 19.8838C59.9905 19.6543 60.0638 19.402 60.1293 19.1391V21.8626H62.9189V10.1387H59.4054V17.0281L59.4023 17.0265Z" fill="#111111"/>
<path d="M73.9849 15.8078C73.1643 15.1664 72.016 14.7667 70.5369 14.6102L69.593 14.5251C68.9627 14.4536 68.5087 14.332 68.231 14.1618C67.9533 13.9901 67.8129 13.7408 67.8129 13.4125C67.8129 13.0843 67.9736 12.8001 68.2965 12.5994C68.6179 12.4003 69.0501 12.3 69.5915 12.3C70.2795 12.3 70.799 12.4323 71.1501 12.6952C71.5011 12.9596 71.7071 13.2834 71.7648 13.6694H74.8835C74.8399 12.414 74.3422 11.455 73.3905 10.7924C72.4388 10.1297 71.186 9.79688 69.6352 9.79688C68.6694 9.79688 67.8082 9.93974 67.0547 10.2239C66.3011 10.5097 65.7114 10.9307 65.287 11.4854C64.8626 12.0417 64.6504 12.7332 64.6504 13.5615C64.6504 14.56 65.0124 15.3807 65.7379 16.0221C66.4634 16.6635 67.5492 17.0571 68.9986 17.1984L69.9425 17.2836C70.7335 17.3687 71.2827 17.5161 71.59 17.7228C71.8974 17.9295 72.0503 18.2046 72.0503 18.5465C72.0503 18.931 71.849 19.2274 71.4465 19.4341C71.044 19.6408 70.5354 19.7442 69.9207 19.7442C69.1156 19.7442 68.5118 19.5983 68.1078 19.3064C67.7052 19.0146 67.4743 18.6818 67.4166 18.311H64.2979C64.3556 19.5511 64.8689 20.5147 65.8346 21.1986C66.8003 21.8826 68.1405 22.226 69.8536 22.226C70.9363 22.226 71.8818 22.0725 72.6868 21.7655C73.4919 21.4585 74.1144 21.0163 74.5544 20.4387C74.9928 19.8612 75.2127 19.1803 75.2127 18.3961C75.2127 17.3124 74.8024 16.4492 73.9833 15.8078H73.9849Z" fill="#111111"/>
<path d="M78.5547 8.98132C79.2131 8.98132 79.6998 8.81414 80.015 8.47826C80.3301 8.1439 80.4877 7.71834 80.4877 7.20616C80.4877 6.69398 80.3301 6.24715 80.015 5.91127C79.6998 5.5769 79.2131 5.4082 78.5547 5.4082C77.8963 5.4082 77.408 5.57538 77.0944 5.91127C76.7792 6.24715 76.6216 6.67878 76.6216 7.20616C76.6216 7.73354 76.7792 8.1439 77.0944 8.47826C77.4095 8.81414 77.8963 8.98132 78.5547 8.98132Z" fill="#111111"/>
<path d="M75.5889 10.1367V12.6612H77.1927V21.8607H80.7062V12.6612V10.1367H77.1927H75.5889Z" fill="#111111"/>
<path d="M90.0844 9.77257H89.9299C89.0079 9.77257 88.2247 9.97319 87.5803 10.3714C86.936 10.7711 86.457 11.3699 86.1419 12.1678C86.0264 12.4596 85.9406 12.7864 85.8673 13.1299V10.1343H83.0777V21.8583H86.5912V15.0327C86.5912 14.3761 86.7924 13.8457 87.195 13.4384C87.5975 13.0326 88.1279 12.8289 88.7879 12.8289C89.4478 12.8289 89.944 13.0296 90.3247 13.4278C90.7053 13.8275 90.8957 14.3412 90.8957 14.9689V21.8583H94.4092V15.1619C94.4092 13.3502 94.0394 11.9991 93.2999 11.107C92.5604 10.2164 91.4885 9.76953 90.0828 9.76953L90.0844 9.77257Z" fill="#111111"/>
<path d="M105.162 10.5755C104.276 10.0116 103.188 9.73047 101.901 9.73047C100.92 9.73047 100.046 9.89765 99.2767 10.2335C98.5076 10.5694 97.8679 11.0223 97.3546 11.5923C96.8413 12.1622 96.4497 12.8081 96.1798 13.5285C95.9083 14.2489 95.7742 15.0012 95.7742 15.7855V16.2141C95.7742 16.9709 95.9099 17.7081 96.1798 18.4285C96.4513 19.1488 96.846 19.7978 97.3655 20.3754C97.8851 20.9529 98.5372 21.4134 99.3204 21.7554C100.104 22.0973 101.009 22.2691 102.032 22.2691C103.055 22.2691 103.935 22.0973 104.712 21.7554C105.488 21.4134 106.132 20.9346 106.645 20.3222C107.157 19.7097 107.502 19.0105 107.678 18.2263H104.45C104.304 18.5835 104.026 18.8829 103.616 19.1245C103.205 19.3677 102.678 19.4878 102.034 19.4878C101.331 19.4878 100.759 19.3449 100.32 19.0607C99.8821 18.775 99.5591 18.3722 99.3547 17.8524C99.2409 17.5637 99.1613 17.2445 99.1114 16.901H107.898V15.746C107.898 14.676 107.664 13.6881 107.196 12.7823C106.727 11.8765 106.049 11.1424 105.165 10.5785L105.162 10.5755ZM99.375 14.1061C99.595 13.5848 99.9164 13.1896 100.341 12.9191C100.765 12.6485 101.285 12.5118 101.899 12.5118C102.514 12.5118 103.001 12.644 103.403 12.9069C103.806 13.1714 104.11 13.5528 104.314 14.0513C104.425 14.3204 104.503 14.6213 104.555 14.9496H99.1316C99.1862 14.641 99.2658 14.3583 99.3735 14.1045L99.375 14.1061Z" fill="#111111"/>
<path d="M118.042 15.8078C117.222 15.1664 116.073 14.7667 114.594 14.6102L113.651 14.5251C113.02 14.4536 112.566 14.332 112.289 14.1618C112.011 13.9901 111.87 13.7408 111.87 13.4125C111.87 13.0843 112.031 12.8001 112.354 12.5994C112.675 12.4003 113.108 12.3 113.649 12.3C114.337 12.3 114.857 12.4323 115.208 12.6952C115.559 12.9596 115.765 13.2834 115.822 13.6694H118.941C118.897 12.414 118.4 11.455 117.448 10.7924C116.496 10.1297 115.243 9.79688 113.693 9.79688C112.727 9.79688 111.866 9.93974 111.112 10.2239C110.359 10.5097 109.769 10.9307 109.344 11.4854C108.92 12.0417 108.708 12.7332 108.708 13.5615C108.708 14.56 109.07 15.3807 109.795 16.0221C110.521 16.6635 111.607 17.0571 113.056 17.1984L114 17.2836C114.791 17.3687 115.34 17.5161 115.648 17.7228C115.955 17.9295 116.108 18.2046 116.108 18.5465C116.108 18.931 115.907 19.2274 115.504 19.4341C115.101 19.6408 114.593 19.7442 113.978 19.7442C113.173 19.7442 112.569 19.5983 112.165 19.3064C111.763 19.0146 111.532 18.6818 111.474 18.311H108.355C108.413 19.5511 108.926 20.5147 109.892 21.1986C110.858 21.8826 112.198 22.226 113.911 22.226C114.994 22.226 115.939 22.0725 116.744 21.7655C117.549 21.4585 118.172 21.0163 118.612 20.4387C119.052 19.8612 119.27 19.1803 119.27 18.3961C119.27 17.3124 118.86 16.4492 118.041 15.8078H118.042Z" fill="#111111"/>
<path d="M129.376 15.8078C128.555 15.1664 127.407 14.7667 125.928 14.6102L124.984 14.5251C124.353 14.4536 123.899 14.332 123.622 14.1618C123.344 13.9901 123.204 13.7408 123.204 13.4125C123.204 13.0843 123.364 12.8001 123.687 12.5994C124.009 12.4003 124.441 12.3 124.982 12.3C125.67 12.3 126.19 12.4323 126.541 12.6952C126.892 12.9596 127.098 13.2834 127.155 13.6694H130.274C130.231 12.414 129.733 11.455 128.781 10.7924C127.829 10.1297 126.577 9.79688 125.026 9.79688C124.06 9.79688 123.199 9.93974 122.445 10.2239C121.692 10.5097 121.102 10.9307 120.678 11.4854C120.253 12.0417 120.041 12.7332 120.041 13.5615C120.041 14.56 120.403 15.3807 121.129 16.0221C121.854 16.6635 122.94 17.0571 124.389 17.1984L125.333 17.2836C126.124 17.3687 126.673 17.5161 126.981 17.7228C127.288 17.9295 127.441 18.2046 127.441 18.5465C127.441 18.931 127.24 19.2274 126.837 19.4341C126.435 19.6408 125.926 19.7442 125.311 19.7442C124.506 19.7442 123.903 19.5983 123.498 19.3064C123.096 19.0146 122.865 18.6818 122.807 18.311H119.689C119.746 19.5511 120.26 20.5147 121.225 21.1986C122.191 21.8826 123.531 22.226 125.244 22.226C126.327 22.226 127.272 22.0725 128.077 21.7655C128.883 21.4585 129.505 21.0163 129.945 20.4387C130.385 19.8612 130.603 19.1803 130.603 18.3961C130.603 17.3124 130.193 16.4492 129.374 15.8078H129.376Z" fill="#111111"/>
<path d="M170.478 18.5198L160.401 18.5168L167.525 25.5186L163.805 29.1115L156.66 22.1416V32.0007H151.433V22.1628L144.289 29.1024L140.601 25.4791L147.756 18.5213H137.635L137.657 13.4238L146.205 13.4588C146.592 13.8387 153.833 20.9546 153.968 21.0883C155.713 19.3952 160.077 15.1959 161.882 13.4557L170.5 13.4588L170.478 18.5213V18.5198Z" fill="#111111"/>
<path d="M156.655 9.82114L156.66 0.00607932L151.432 0V9.83634L144.324 2.87096L140.604 6.46383L153.969 19.5982L155.859 17.7729L167.529 6.50335L163.843 2.88008L156.655 9.82114Z" fill="#FF500B"/>
</g>
<defs>
<clipPath id="clip0_3754_5922">
<rect width="170" height="32" fill="white" transform="translate(0.499939)"/>
</clipPath>
</defs>
</svg>
