<svg width="170" height="78" viewBox="0 0 170 78" fill="none" xmlns="http://www.w3.org/2000/svg">
<g clip-path="url(#clip0_3869_2692)">
<path d="M15.0222 58.555C14.38 57.8447 13.6156 57.2918 12.7268 56.8922C11.8379 56.4947 10.8472 56.2949 9.75657 56.2949C8.53139 56.2949 7.43261 56.5653 6.45614 57.1041C5.47966 57.6429 4.70501 58.4481 4.13217 59.5196C3.93851 59.8828 3.78154 60.2844 3.64495 60.7021V56.749H0V77.998H4.59085V70.3601C5.12088 71.1148 5.77118 71.702 6.55603 72.1036C7.50396 72.5859 8.56809 72.828 9.75657 72.828C10.9451 72.828 11.9236 72.6242 12.8124 72.2166C13.7012 71.809 14.4575 71.2459 15.0793 70.5276C15.701 69.8071 16.174 68.9616 16.5001 67.9849C16.8243 67.0103 16.9874 65.9629 16.9874 64.845V64.1912C16.9874 63.0551 16.8202 62.0098 16.4859 61.0533C16.1516 60.0967 15.6623 59.2633 15.0222 58.553V58.555ZM11.8808 66.865C11.5546 67.547 11.1 68.0778 10.517 68.4551C9.93393 68.8345 9.24897 69.0242 8.46616 69.0242C7.81586 69.0242 7.1839 68.8728 6.57233 68.5701C5.96076 68.2674 5.45724 67.8275 5.06583 67.2484C4.67239 66.6712 4.47669 65.975 4.47669 65.1598V64.1084C4.47669 63.2569 4.66424 62.5324 5.03729 61.9351C5.41035 61.3378 5.90368 60.8797 6.51525 60.5568C7.12682 60.234 7.77713 60.0746 8.46616 60.0746C9.26935 60.0746 9.95839 60.2582 10.5333 60.6295C11.1061 60.9988 11.5566 61.5154 11.8828 62.1773C12.2069 62.8412 12.37 63.6161 12.37 64.506C12.37 65.3959 12.2069 66.1809 11.8828 66.8629L11.8808 66.865Z" fill="white"/>
<path d="M24.0045 58.3427C23.289 59.2427 22.8466 60.4292 22.6713 61.9023V56.7525H19.0264V72.319H23.6172V64.3945C23.6172 63.1252 23.9617 62.1546 24.6508 61.4826C25.3398 60.8106 26.3163 60.4736 27.5781 60.4736H28.7259V56.5527H28.1224C26.3244 56.5527 24.9504 57.15 24.0045 58.3427Z" fill="white"/>
<path d="M43.8778 58.5962C43.1317 57.8577 42.2266 57.2745 41.1665 56.8487C40.1044 56.4229 38.8956 56.209 37.5358 56.209C36.1761 56.209 35.0202 56.4229 33.948 56.8487C32.8757 57.2745 31.9624 57.8577 31.2081 58.5962C30.4518 59.3348 29.879 60.1924 29.4876 61.1671C29.0941 62.1418 28.8984 63.1689 28.8984 64.2485V64.9023C28.8984 65.9638 29.0901 66.9728 29.4713 67.9272C29.8545 68.8838 30.4131 69.7313 31.1511 70.4699C31.887 71.2084 32.7921 71.7916 33.8623 72.2174C34.9326 72.6432 36.1578 72.8571 37.5358 72.8571C38.9139 72.8571 40.1656 72.6432 41.2379 72.2174C42.3102 71.7916 43.2132 71.2084 43.9492 70.4699C44.6851 69.7313 45.2457 68.8838 45.6289 67.9272C46.0122 66.9707 46.2018 65.9618 46.2018 64.9023V64.2485C46.2018 63.1689 46.002 62.1418 45.5984 61.1671C45.1968 60.1924 44.6219 59.3348 43.8778 58.5962ZM41.138 66.8618C40.822 67.5438 40.3674 68.0746 39.7742 68.4519C39.181 68.8313 38.4348 69.021 37.5358 69.021C36.6368 69.021 35.9376 68.8313 35.326 68.4519C34.7145 68.0725 34.2537 67.5438 33.948 66.8618C33.6422 66.1797 33.4893 65.423 33.4893 64.5895C33.4893 63.6996 33.6463 62.9187 33.9622 62.2467C34.2782 61.5747 34.741 61.04 35.3546 60.6424C35.9661 60.2449 36.6939 60.0451 37.5358 60.0451C38.3778 60.0451 39.128 60.2449 39.7314 60.6424C40.3327 61.04 40.7975 61.5747 41.1237 62.2467C41.4499 62.9187 41.6109 63.6996 41.6109 64.5895C41.6109 65.423 41.454 66.1797 41.138 66.8618Z" fill="white"/>
<path d="M63.3336 58.5259C62.72 57.8156 61.98 57.2667 61.1096 56.8772C60.2391 56.4898 59.2687 56.296 58.1965 56.296C56.9713 56.296 55.8806 56.5664 54.9246 57.1052C54.0684 57.5895 53.3854 58.2978 52.8575 59.2059V51.5801H48.2666V72.3166H51.9116V68.9163C52.0135 69.1807 52.1256 69.4349 52.2561 69.6731C52.8106 70.6962 53.575 71.4771 54.5515 72.0159C55.528 72.5547 56.6553 72.8251 57.9376 72.8251C59.0669 72.8251 60.0801 72.6213 60.9791 72.2137C61.8781 71.806 62.6487 71.239 63.2888 70.5085C63.9289 69.78 64.4182 68.9325 64.7525 67.9659C65.0868 66.9993 65.254 65.9499 65.254 64.8118V64.1862C65.254 63.0501 65.0868 61.9988 64.7525 61.0342C64.4182 60.0676 63.9432 59.2301 63.3316 58.5198L63.3336 58.5259ZM60.1474 66.8499C59.8212 67.5421 59.3666 68.0769 58.7836 68.4542C58.2005 68.8336 57.5156 69.0233 56.7328 69.0233C56.0825 69.0233 55.4505 68.8719 54.8389 68.5692C54.2274 68.2665 53.7238 67.8266 53.3324 67.2475C52.939 66.6703 52.7433 65.9741 52.7433 65.1589V64.1075C52.7433 63.256 52.9308 62.5315 53.3039 61.9342C53.677 61.3369 54.1703 60.8788 54.7819 60.5559C55.3934 60.2331 56.0437 60.0737 56.7328 60.0737C57.5176 60.0737 58.2005 60.2573 58.7836 60.6286C59.3666 60.9999 59.8212 61.5145 60.1474 62.1764C60.4715 62.8403 60.6346 63.6152 60.6346 64.5051C60.6346 65.395 60.4715 66.1578 60.1474 66.8479V66.8499Z" fill="white"/>
<path d="M76.9636 65.8973C76.9636 66.7691 76.7047 67.4592 76.189 67.9718C75.6732 68.4823 75.0025 68.7386 74.181 68.7386C73.3594 68.7386 72.7356 68.4924 72.2586 68C71.7796 67.5077 71.541 66.8458 71.541 66.0123V56.752H66.9502V65.7843C66.9502 68.1332 67.4374 69.8888 68.4139 71.0532C69.3904 72.2176 70.7868 72.8007 72.6031 72.8007H72.805C73.9914 72.8007 74.9862 72.5445 75.7894 72.0339C76.5926 71.5234 77.2001 70.7404 77.6119 69.6911C77.7322 69.3864 77.828 69.0514 77.9136 68.7023V72.3185H81.5585V56.752H76.9677V65.8993L76.9636 65.8973Z" fill="white"/>
<path d="M96.0188 64.2798C94.9465 63.4283 93.4461 62.8975 91.5135 62.6897L90.2802 62.5767C89.4566 62.4818 88.8634 62.3204 88.5005 62.0944C88.1377 61.8664 87.9542 61.5354 87.9542 61.0995C87.9542 60.6637 88.1642 60.2863 88.5862 60.0199C89.0061 59.7556 89.5708 59.6224 90.2782 59.6224C91.1772 59.6224 91.856 59.798 92.3147 60.1471C92.7734 60.4982 93.0425 60.928 93.1179 61.4406H97.193C97.1359 59.7737 96.4856 58.5004 95.2421 57.6206C93.9986 56.7408 92.3616 56.2988 90.3353 56.2988C89.0734 56.2988 87.9481 56.4885 86.9635 56.8659C85.9788 57.2452 85.2083 57.8042 84.6538 58.5408C84.0993 59.2794 83.822 60.1975 83.822 61.2973C83.822 62.6231 84.295 63.7128 85.2429 64.5644C86.1909 65.416 87.6097 65.9386 89.5035 66.1263L90.7369 66.2393C91.7704 66.3523 92.488 66.548 92.8896 66.8225C93.2912 67.0969 93.491 67.4622 93.491 67.9162C93.491 68.4267 93.228 68.8202 92.702 69.0947C92.1761 69.3691 91.5115 69.5063 90.7083 69.5063C89.6564 69.5063 88.8675 69.3126 88.3395 68.9252C87.8136 68.5377 87.5118 68.0958 87.4364 67.6034H83.3613C83.4368 69.2501 84.1074 70.5294 85.3693 71.4375C86.6312 72.3456 88.3823 72.8017 90.6207 72.8017C92.0354 72.8017 93.2708 72.5978 94.3227 72.1902C95.3746 71.7826 96.188 71.1954 96.7629 70.4286C97.3377 69.6617 97.6231 68.7577 97.6231 67.7164C97.6231 66.2776 97.087 65.1314 96.0167 64.2798H96.0188Z" fill="white"/>
<path d="M101.99 55.2169C102.85 55.2169 103.486 54.9949 103.898 54.5489C104.31 54.105 104.515 53.54 104.515 52.8599C104.515 52.1798 104.31 51.5866 103.898 51.1406C103.486 50.6966 102.85 50.4727 101.99 50.4727C101.129 50.4727 100.491 50.6946 100.082 51.1406C99.6698 51.5866 99.4639 52.1597 99.4639 52.8599C99.4639 53.5601 99.6698 54.105 100.082 54.5489C100.493 54.9949 101.129 55.2169 101.99 55.2169Z" fill="white"/>
<path d="M98.1143 56.75V60.1018H100.21V72.3165H104.801V60.1018V56.75H100.21H98.1143Z" fill="white"/>
<path d="M117.055 56.2677H116.853C115.648 56.2677 114.625 56.5341 113.783 57.0628C112.941 57.5935 112.315 58.3886 111.903 59.448C111.752 59.8355 111.64 60.2693 111.544 60.7254V56.748H107.899V72.3145H112.49V63.2518C112.49 62.3801 112.753 61.6758 113.279 61.135C113.805 60.5962 114.498 60.3258 115.361 60.3258C116.223 60.3258 116.871 60.5922 117.369 61.1209C117.866 61.6516 118.115 62.3337 118.115 63.1671V72.3145H122.706V63.4234C122.706 61.018 122.222 59.224 121.256 58.0395C120.29 56.8569 118.889 56.2637 117.053 56.2637L117.055 56.2677Z" fill="white"/>
<path d="M136.755 57.3329C135.597 56.5843 134.177 56.2109 132.495 56.2109C131.212 56.2109 130.071 56.4329 129.066 56.8789C128.061 57.3248 127.225 57.9262 126.554 58.6829C125.884 59.4397 125.372 60.2973 125.019 61.2538C124.665 62.2103 124.489 63.2092 124.489 64.2505V64.8195C124.489 65.8245 124.667 66.8032 125.019 67.7597C125.374 68.7162 125.89 69.5779 126.569 70.3447C127.247 71.1115 128.1 71.723 129.123 72.177C130.146 72.631 131.329 72.8591 132.666 72.8591C134.003 72.8591 135.153 72.631 136.168 72.177C137.181 71.723 138.023 71.0873 138.694 70.2741C139.363 69.4608 139.813 68.5326 140.044 67.4913H135.826C135.634 67.9655 135.271 68.3631 134.735 68.6839C134.199 69.0068 133.51 69.1662 132.668 69.1662C131.751 69.1662 131.002 68.9765 130.43 68.5992C129.857 68.2198 129.435 67.685 129.168 66.9949C129.019 66.6115 128.915 66.1877 128.85 65.7316H140.331V64.198C140.331 62.7774 140.025 61.4657 139.414 60.263C138.8 59.0603 137.915 58.0856 136.759 57.337L136.755 57.3329ZM129.194 62.0206C129.482 61.3285 129.902 60.8038 130.456 60.4446C131.011 60.0854 131.689 59.9038 132.493 59.9038C133.296 59.9038 133.932 60.0794 134.458 60.4285C134.984 60.7796 135.381 61.2861 135.648 61.948C135.793 62.3052 135.895 62.7047 135.962 63.1406H128.876C128.948 62.7309 129.052 62.3556 129.192 62.0186L129.194 62.0206Z" fill="white"/>
<path d="M153.585 64.2798C152.513 63.4283 151.013 62.8975 149.08 62.6897L147.847 62.5767C147.023 62.4818 146.43 62.3204 146.067 62.0944C145.704 61.8664 145.521 61.5354 145.521 61.0995C145.521 60.6637 145.731 60.2863 146.153 60.0199C146.573 59.7556 147.137 59.6224 147.845 59.6224C148.744 59.6224 149.422 59.798 149.881 60.1471C150.34 60.4982 150.609 60.928 150.684 61.4406H154.759C154.702 59.7737 154.052 58.5004 152.808 57.6206C151.565 56.7408 149.928 56.2988 147.902 56.2988C146.64 56.2988 145.515 56.4885 144.53 56.8659C143.545 57.2452 142.775 57.8042 142.22 58.5408C141.666 59.2794 141.388 60.1975 141.388 61.2973C141.388 62.6231 141.861 63.7128 142.809 64.5644C143.757 65.416 145.176 65.9386 147.07 66.1263L148.303 66.2393C149.337 66.3523 150.054 66.548 150.456 66.8225C150.858 67.0969 151.057 67.4622 151.057 67.9162C151.057 68.4267 150.794 68.8202 150.268 69.0947C149.742 69.3691 149.078 69.5063 148.275 69.5063C147.223 69.5063 146.434 69.3126 145.906 68.9252C145.38 68.5377 145.078 68.0958 145.003 67.6034H140.928C141.003 69.2501 141.674 70.5294 142.936 71.4375C144.198 72.3456 145.949 72.8017 148.187 72.8017C149.602 72.8017 150.837 72.5978 151.889 72.1902C152.941 71.7826 153.754 71.1954 154.329 70.4286C154.904 69.6617 155.19 68.7577 155.19 67.7164C155.19 66.2776 154.653 65.1314 153.583 64.2798H153.585Z" fill="white"/>
<path d="M168.394 64.2798C167.321 63.4283 165.821 62.8975 163.889 62.6897L162.655 62.5767C161.832 62.4818 161.238 62.3204 160.876 62.0944C160.513 61.8664 160.329 61.5354 160.329 61.0995C160.329 60.6637 160.539 60.2863 160.961 60.0199C161.381 59.7556 161.946 59.6224 162.653 59.6224C163.552 59.6224 164.231 59.798 164.69 60.1471C165.148 60.4982 165.417 60.928 165.493 61.4406H169.568C169.511 59.7737 168.861 58.5004 167.617 57.6206C166.374 56.7408 164.737 56.2988 162.71 56.2988C161.448 56.2988 160.323 56.4885 159.338 56.8659C158.354 57.2452 157.583 57.8042 157.029 58.5408C156.474 59.2794 156.197 60.1975 156.197 61.2973C156.197 62.6231 156.67 63.7128 157.618 64.5644C158.566 65.416 159.985 65.9386 161.879 66.1263L163.112 66.2393C164.145 66.3523 164.863 66.548 165.265 66.8225C165.666 67.0969 165.866 67.4622 165.866 67.9162C165.866 68.4267 165.603 68.8202 165.077 69.0947C164.551 69.3691 163.887 69.5063 163.083 69.5063C162.031 69.5063 161.242 69.3126 160.715 68.9252C160.189 68.5377 159.887 68.0958 159.811 67.6034H155.736C155.812 69.2501 156.482 70.5294 157.744 71.4375C159.006 72.3456 160.757 72.8017 162.996 72.8017C164.41 72.8017 165.646 72.5978 166.698 72.1902C167.75 71.7826 168.563 71.1954 169.138 70.4286C169.713 69.6617 169.998 68.7577 169.998 67.7164C169.998 66.2776 169.462 65.1314 168.392 64.2798H168.394Z" fill="white"/>
<path d="M42.9138 24.5904L29.7467 24.5864L39.0548 33.8831L34.1949 38.6535L24.8583 29.3992V42.4897H18.0291V29.4275L8.69448 38.6414L3.87531 33.8306L13.2242 24.5924H0L0.0285399 17.8242L11.1978 17.8706C11.7034 18.3751 21.1644 27.8232 21.3417 28.0008C23.6209 25.7528 29.3227 20.1772 31.6813 17.8666L42.9424 17.8706L42.9138 24.5924V24.5904Z" fill="white"/>
<path d="M24.8497 13.04L24.8579 0.00807182L18.0246 0V13.0602L8.73689 3.81192L3.87695 8.58236L21.3413 26.0215L23.81 23.598L39.0605 8.63483L34.2414 3.82402L24.8497 13.04Z" fill="#FF6A29"/>
</g>
<defs>
<clipPath id="clip0_3869_2692">
<rect width="170" height="78" fill="white"/>
</clipPath>
</defs>
</svg>
